<svg xmlns="http://www.w3.org/2000/svg" viewBox="0 0 108 108">
  <defs>
    <linearGradient id="heartGrad" x1="0%" y1="0%" x2="100%" y2="100%">
      <stop offset="0%" style="stop-color:#FF6B6B"/>
      <stop offset="100%" style="stop-color:#EE5A5A"/>
    </linearGradient>
  </defs>
  <!-- Heart with beacon signal -->
  <circle cx="54" cy="54" r="48" fill="url(#heartGrad)"/>
  <!-- Heart shape -->
  <path d="M54 78 C30 58 22 44 22 34 C22 24 30 18 40 18 C47 18 54 24 54 30 C54 24 61 18 68 18 C78 18 86 24 86 34 C86 44 78 58 54 78Z" fill="white"/>
  <!-- Beacon waves -->
  <path d="M62 40 Q68 40 68 46" stroke="#FF6B6B" stroke-width="3" fill="none" stroke-linecap="round"/>
  <path d="M66 36 Q76 36 76 46" stroke="#FF6B6B" stroke-width="2.5" fill="none" stroke-linecap="round"/>
  <path d="M70 32 Q84 32 84 46" stroke="#FF6B6B" stroke-width="2" fill="none" stroke-linecap="round"/>
</svg>